<svg width="1438" height="14" viewBox="0 0 1438 14" fill="none" xmlns="http://www.w3.org/2000/svg">
<g opacity="0.5">
<path d="M2561 14C2564.87 14 2568 10.866 2568 7V7C2568 3.13401 2564.87 -4.17233e-07 2561 -4.17233e-07L-20 -4.17233e-07C-23.866 -4.17233e-07 -26.9999 3.13401 -26.9999 7V7C-26.9999 10.866 -23.8659 14 -19.9999 14L2561 14Z" fill="#5C2100"/>
<path d="M2561 14C2564.87 14 2568 10.866 2568 7V7C2568 3.13401 2564.87 -4.17233e-07 2561 -4.17233e-07L-20 -4.17233e-07C-23.866 -4.17233e-07 -26.9999 3.13401 -26.9999 7V7C-26.9999 10.866 -23.8659 14 -19.9999 14L2561 14Z" fill="#D19F83"/>
</g>
</svg>
