<svg width="155" height="155" viewBox="0 0 155 155" fill="none" xmlns="http://www.w3.org/2000/svg">
<g clip-path="url(#clip0)">
<path d="M154.54 86.7848C154.155 86.016 153.194 85.6315 152.425 85.4393C148.005 85.4393 109.946 83.9016 109.946 39.6925C109.946 38.347 108.793 37.1938 107.448 37.1938C106.102 37.1938 104.949 38.347 104.949 39.6925C104.949 83.9016 66.8905 85.4393 62.6618 85.4393C62.0851 85.4393 61.5085 85.6316 61.1241 86.016C60.7396 86.2082 60.5474 86.5926 60.3552 86.7848C59.9708 87.5537 59.9708 88.5147 60.3552 89.2836C60.7396 90.0525 61.7007 90.6291 62.6618 90.6291C62.6618 90.6291 62.6618 90.6291 62.854 90.6291C67.2749 90.6291 105.141 92.1668 105.141 136.376C105.141 137.721 106.294 138.875 107.64 138.875C108.985 138.875 110.139 137.721 110.139 136.376C110.139 92.359 148.005 90.6291 152.425 90.6291C153.387 90.6291 154.155 90.0525 154.732 89.2836C155.116 88.5147 155.116 87.5537 154.54 86.7848ZM107.448 117.539C101.873 99.2787 88.2262 91.398 77.4622 87.9381C88.2262 84.4783 101.873 76.5975 107.448 58.3372C113.022 76.5975 126.669 84.4783 137.433 87.9381C126.669 91.398 113.022 99.2787 107.448 117.539Z" fill="black"/>
<path d="M75.732 36.8093C77.0775 36.8093 78.2308 35.6561 78.2308 34.1184C78.2308 32.7729 77.0775 31.6196 75.732 31.6196C73.4255 31.6196 52.6664 30.8507 52.6664 6.63183C52.6664 5.28634 51.5131 4.13306 50.1677 4.13306C48.8222 4.13306 47.6689 5.28634 47.6689 6.63183C47.6689 30.8507 26.9098 31.6196 24.6033 31.6196C24.4111 31.6196 24.4111 31.6196 24.4111 31.6196C23.0656 31.8118 22.1045 32.7729 22.1045 34.1184C22.1045 35.4639 23.2578 36.6171 24.6033 36.6171C27.102 36.6171 47.6689 37.386 47.6689 61.6049C47.6689 62.9504 48.8222 64.1037 50.1677 64.1037C51.3209 64.2959 52.4742 63.1426 52.4742 61.7971C52.4742 37.5782 73.2333 36.8093 75.5398 36.8093H75.732ZM49.9754 47.7655C46.9 40.4614 41.3258 36.4249 36.1361 34.1184C41.7103 31.8118 46.9 27.3909 49.9754 20.4712C53.0509 27.7753 58.625 31.8118 63.8148 34.1184C58.2406 36.4249 53.0509 40.8458 49.9754 47.7655Z" fill="black"/>
<path d="M53.6276 118.308C51.321 118.308 30.5619 117.539 30.5619 93.3201C30.5619 91.9746 29.4087 90.8214 28.0632 90.8214C26.7177 90.8214 25.5644 91.9746 25.5644 93.3201C25.5644 117.539 4.80534 118.308 2.49878 118.308C2.30656 118.308 2.30656 118.308 2.30656 118.308C0.961068 118.5 0 119.461 0 120.807C0 122.152 1.15328 123.305 2.49878 123.305C4.99755 123.305 25.5644 124.074 25.5644 148.293C25.5644 149.639 26.7177 150.792 28.0632 150.792C29.2165 151.176 30.3697 150.023 30.3697 148.485C30.3697 124.266 51.1288 123.498 53.4354 123.498H53.6276C54.9731 123.498 56.1263 122.344 56.1263 120.807C56.1263 119.461 54.9731 118.308 53.6276 118.308ZM27.871 134.646C24.6033 127.342 19.2213 123.305 14.0316 120.999C19.6058 118.692 24.7955 114.271 27.871 107.352C30.9464 114.656 36.5206 118.692 41.7103 120.999C36.1361 123.305 30.9464 127.726 27.871 134.646Z" fill="black"/>
</g>
<defs>
<clipPath id="clip0">
<rect width="155" height="155" fill="white"/>
</clipPath>
</defs>
</svg>
